<svg xmlns="http://www.w3.org/2000/svg" fill="none" class="wait_logo__1ZgNy" viewBox="0 0 113 46">
  <g clip-path="url(#logo_svg__clip0)">
    <path fill="url(#logo_svg__paint0_linear)" d="M81.1 20.8c0 11.5-9.3 20.8-20.7 20.8a20.8 20.8 0 010-41.6c11.4 0 20.7 9.3 20.7 20.8z"/>
    <path fill="url(#logo_svg__paint1_linear)" d="M15.8 1.6H0v39.8h15.8V1.6z"/>
    <path fill="url(#logo_svg__paint2_linear)" d="M15.8 1.6h4a19.9 19.9 0 010 39.8h-4V1.6z"/>
    <path fill="#fff" d="M70.5 22.4l1.6-6h4.7L72.7 28h-3.9l-1.5-4.7-1.5 4.7H62l-4.2-11.6h4.7l1.6 6 1.7-6h3l1.7 6zm18.3-6V28h-4.4v-4.2h-2.7V28h-4.4V16.4h4.4v4.1h2.7v-4.1h4.4zM90.3 28V16.4h4.4V28h-4.4zm13.8-3.4V28h-8V16.4h4.5v8.2h3.5zm5.3-4.9v1.1h2.8v2.8h-2.8v1h3.6V28h-8V16.4h8v3.3h-3.6zM85 36.3v2.9h-9s4.3-4.8 4.8-5.9c.5-.9 0-1.4-.4-1.4-.5 0-1 .2-1 1.4l-3.5-.2c0-2.2 1.6-4 4.4-4 2.8 0 4.5 1.4 4.5 3.5 0 1.3-1.1 2.7-2.3 3.7H85zm18.6 0v2.9h-9.1s4.3-4.8 4.9-5.9c.5-.9 0-1.4-.5-1.4s-1 .2-1 1.4l-3.4-.2c0-2.2 1.6-4 4.4-4 2.8 0 4.5 1.4 4.5 3.5 0 1.3-1.1 2.7-2.4 3.7h2.6zm-13.8 3c2.5 0 4.6-2.2 4.6-5 0-3-2-5.2-4.6-5.2-2.6 0-4.7 2.3-4.7 5.1 0 2.9 2 5.2 4.7 5.2zm18.5 0c2.6 0 4.7-2.2 4.7-5 0-3-2-5.2-4.7-5.2-2.6 0-4.7 2.3-4.7 5.1 0 2.9 2.1 5.2 4.7 5.2z"/>
    <path fill="url(#logo_svg__paint3_linear)" d="M81.1 20.8c0 11.5-9.3 20.8-20.7 20.8a20.8 20.8 0 010-41.6c11.4 0 20.7 9.3 20.7 20.8z"/>
    <path fill="url(#logo_svg__paint4_linear)" d="M15.8 1.6H0v39.8h15.8V1.6z"/>
    <path fill="url(#logo_svg__paint5_linear)" d="M15.8 1.6h4a19.9 19.9 0 010 39.8h-4V1.6z"/>
    <path fill="#fff" d="M70.5 22.4l1.6-6h4.7L72.7 28h-3.9l-1.5-4.7-1.5 4.7H62l-4.2-11.6h4.7l1.6 6 1.7-6h3l1.7 6zm18.3-6V28h-4.4v-4.2h-2.7V28h-4.4V16.4h4.4v4.1h2.7v-4.1h4.4zM90.3 28V16.4h4.4V28h-4.4zm13.8-3.4V28h-8V16.4h4.5v8.2h3.5zm5.3-4.9v1.1h2.8v2.8h-2.8v1h3.6V28h-8V16.4h8v3.3h-3.6zM85 36.3v2.9h-9s4.3-4.8 4.8-5.9c.5-.9 0-1.4-.4-1.4-.5 0-1 .2-1 1.4l-3.5-.2c0-2.2 1.6-4 4.4-4 2.8 0 4.5 1.4 4.5 3.5 0 1.3-1.1 2.7-2.3 3.7H85zm18.6 0v2.9h-9.1s4.3-4.8 4.9-5.9c.5-.9 0-1.4-.5-1.4s-1 .2-1 1.4l-3.4-.2c0-2.2 1.6-4 4.4-4 2.8 0 4.5 1.4 4.5 3.5 0 1.3-1.1 2.7-2.4 3.7h2.6zm-13.8 3c2.5 0 4.6-2.2 4.6-5 0-3-2-5.2-4.6-5.2-2.6 0-4.7 2.3-4.7 5.1 0 2.9 2 5.2 4.7 5.2zm18.5 0c2.6 0 4.7-2.2 4.7-5 0-3-2-5.2-4.7-5.2-2.6 0-4.7 2.3-4.7 5.1 0 2.9 2.1 5.2 4.7 5.2z"/>
  </g>
  <defs>
    <linearGradient id="logo_svg__paint0_linear" x1="48.7" x2="73.1" y1="5.8" y2="36.8" gradientUnits="userSpaceOnUse">
      <stop offset="0" stop-color="#FF008E"/>
      <stop offset=".1" stop-color="#FF238A"/>
      <stop offset=".2" stop-color="#FF4D85"/>
      <stop offset=".4" stop-color="#FF6F81"/>
      <stop offset=".5" stop-color="#FF8A7E"/>
      <stop offset=".7" stop-color="#FF9D7C"/>
      <stop offset=".8" stop-color="#FFA87A"/>
      <stop offset="1" stop-color="#FFAC7A"/>
    </linearGradient>
    <linearGradient id="logo_svg__paint1_linear" x1="4.4" x2="12.4" y1="5.1" y2="42.2" gradientUnits="userSpaceOnUse">
      <stop stop-color="#FF008E"/>
      <stop offset="1" stop-color="#FFAC7A"/>
    </linearGradient>
    <linearGradient id="logo_svg__paint2_linear" x1="15.8" x2="39.7" y1="21.5" y2="21.5" gradientUnits="userSpaceOnUse">
      <stop stop-color="#FFCD1E"/>
      <stop offset="1" stop-color="#FFF566"/>
    </linearGradient>
    <linearGradient id="logo_svg__paint3_linear" x1="48.7" x2="73.1" y1="5.8" y2="36.8" gradientUnits="userSpaceOnUse">
      <stop offset="0" stop-color="#FF008E"/>
      <stop offset=".1" stop-color="#FF238A"/>
      <stop offset=".2" stop-color="#FF4D85"/>
      <stop offset=".4" stop-color="#FF6F81"/>
      <stop offset=".5" stop-color="#FF8A7E"/>
      <stop offset=".7" stop-color="#FF9D7C"/>
      <stop offset=".8" stop-color="#FFA87A"/>
      <stop offset="1" stop-color="#FFAC7A"/>
    </linearGradient>
    <linearGradient id="logo_svg__paint4_linear" x1="4.4" x2="12.4" y1="5.1" y2="42.2" gradientUnits="userSpaceOnUse">
      <stop stop-color="#FF008E"/>
      <stop offset="1" stop-color="#FFAC7A"/>
    </linearGradient>
    <linearGradient id="logo_svg__paint5_linear" x1="15.8" x2="39.7" y1="21.5" y2="21.5" gradientUnits="userSpaceOnUse">
      <stop stop-color="#FFCD1E"/>
      <stop offset="1" stop-color="#FFF566"/>
    </linearGradient>
    <clipPath id="logo_svg__clip0">
      <path fill="#fff" d="M0 0h113v46H0z"/>
    </clipPath>
  </defs>
</svg>